<mxfile host="app.diagrams.net" modified="2021-02-18T06:30:18.060Z" agent="5.0 (Macintosh; Intel Mac OS X 10_15_7) AppleWebKit/537.36 (KHTML, like Gecko) Chrome/88.0.4324.150 Safari/537.36" etag="rYT8gEC6ztfySJMDp1Tq" version="14.4.2" type="github">
  <diagram id="4nkO9qOmHx8bbRtUlVCW" name="Page-1">
    <mxGraphModel dx="3955" dy="1923" grid="0" gridSize="10" guides="1" tooltips="1" connect="1" arrows="1" fold="1" page="1" pageScale="1" pageWidth="400" pageHeight="400" math="0" shadow="1">
      <root>
        <mxCell id="0" />
        <mxCell id="1" parent="0" />
        <mxCell id="vv1z8L2qctmy59TaC0D9-57" style="edgeStyle=orthogonalEdgeStyle;rounded=0;orthogonalLoop=1;jettySize=auto;html=1;exitX=0.5;exitY=1;exitDx=0;exitDy=0;" edge="1" parent="1" source="vv1z8L2qctmy59TaC0D9-1" target="vv1z8L2qctmy59TaC0D9-5">
          <mxGeometry relative="1" as="geometry" />
        </mxCell>
        <mxCell id="vv1z8L2qctmy59TaC0D9-58" style="edgeStyle=orthogonalEdgeStyle;rounded=0;orthogonalLoop=1;jettySize=auto;html=1;exitX=0.5;exitY=1;exitDx=0;exitDy=0;entryX=0.5;entryY=0;entryDx=0;entryDy=0;" edge="1" parent="1" source="vv1z8L2qctmy59TaC0D9-1" target="vv1z8L2qctmy59TaC0D9-3">
          <mxGeometry relative="1" as="geometry">
            <Array as="points">
              <mxPoint x="420" y="140" />
              <mxPoint x="15" y="140" />
            </Array>
          </mxGeometry>
        </mxCell>
        <mxCell id="vv1z8L2qctmy59TaC0D9-60" style="edgeStyle=orthogonalEdgeStyle;rounded=0;orthogonalLoop=1;jettySize=auto;html=1;exitX=0.5;exitY=1;exitDx=0;exitDy=0;entryX=0.5;entryY=0;entryDx=0;entryDy=0;" edge="1" parent="1" source="vv1z8L2qctmy59TaC0D9-1" target="vv1z8L2qctmy59TaC0D9-4">
          <mxGeometry relative="1" as="geometry">
            <Array as="points">
              <mxPoint x="420" y="140" />
              <mxPoint x="175" y="140" />
            </Array>
          </mxGeometry>
        </mxCell>
        <mxCell id="vv1z8L2qctmy59TaC0D9-61" style="edgeStyle=orthogonalEdgeStyle;rounded=0;orthogonalLoop=1;jettySize=auto;html=1;exitX=0.5;exitY=1;exitDx=0;exitDy=0;" edge="1" parent="1" source="vv1z8L2qctmy59TaC0D9-1" target="vv1z8L2qctmy59TaC0D9-7">
          <mxGeometry relative="1" as="geometry">
            <Array as="points">
              <mxPoint x="420" y="140" />
              <mxPoint x="1210" y="140" />
            </Array>
          </mxGeometry>
        </mxCell>
        <mxCell id="vv1z8L2qctmy59TaC0D9-62" style="edgeStyle=orthogonalEdgeStyle;rounded=0;orthogonalLoop=1;jettySize=auto;html=1;exitX=0.5;exitY=1;exitDx=0;exitDy=0;entryX=0.5;entryY=0;entryDx=0;entryDy=0;" edge="1" parent="1" source="vv1z8L2qctmy59TaC0D9-1" target="vv1z8L2qctmy59TaC0D9-6">
          <mxGeometry relative="1" as="geometry">
            <Array as="points">
              <mxPoint x="420" y="140" />
              <mxPoint x="695" y="140" />
            </Array>
          </mxGeometry>
        </mxCell>
        <mxCell id="vv1z8L2qctmy59TaC0D9-1" value="Airbnb App" style="ellipse;whiteSpace=wrap;html=1;" vertex="1" parent="1">
          <mxGeometry x="360" y="50" width="120" height="80" as="geometry" />
        </mxCell>
        <mxCell id="vv1z8L2qctmy59TaC0D9-11" style="edgeStyle=orthogonalEdgeStyle;rounded=0;orthogonalLoop=1;jettySize=auto;html=1;exitX=0.5;exitY=1;exitDx=0;exitDy=0;entryX=0.6;entryY=-0.017;entryDx=0;entryDy=0;entryPerimeter=0;" edge="1" parent="1" source="vv1z8L2qctmy59TaC0D9-3" target="vv1z8L2qctmy59TaC0D9-8">
          <mxGeometry relative="1" as="geometry">
            <Array as="points">
              <mxPoint x="15" y="230" />
              <mxPoint x="-113" y="230" />
            </Array>
          </mxGeometry>
        </mxCell>
        <mxCell id="vv1z8L2qctmy59TaC0D9-12" style="edgeStyle=orthogonalEdgeStyle;rounded=0;orthogonalLoop=1;jettySize=auto;html=1;exitX=0.5;exitY=1;exitDx=0;exitDy=0;entryX=0.5;entryY=0;entryDx=0;entryDy=0;" edge="1" parent="1" source="vv1z8L2qctmy59TaC0D9-3" target="vv1z8L2qctmy59TaC0D9-9">
          <mxGeometry relative="1" as="geometry">
            <Array as="points">
              <mxPoint x="15" y="230" />
              <mxPoint x="-40" y="230" />
            </Array>
          </mxGeometry>
        </mxCell>
        <mxCell id="vv1z8L2qctmy59TaC0D9-15" style="edgeStyle=orthogonalEdgeStyle;rounded=0;orthogonalLoop=1;jettySize=auto;html=1;exitX=0.5;exitY=1;exitDx=0;exitDy=0;" edge="1" parent="1" source="vv1z8L2qctmy59TaC0D9-3" target="vv1z8L2qctmy59TaC0D9-10">
          <mxGeometry relative="1" as="geometry">
            <Array as="points">
              <mxPoint x="15" y="230" />
              <mxPoint x="40" y="230" />
            </Array>
          </mxGeometry>
        </mxCell>
        <mxCell id="vv1z8L2qctmy59TaC0D9-3" value="Home / Explore" style="rounded=1;whiteSpace=wrap;html=1;" vertex="1" parent="1">
          <mxGeometry x="-45" y="160" width="120" height="60" as="geometry" />
        </mxCell>
        <mxCell id="vv1z8L2qctmy59TaC0D9-56" style="edgeStyle=orthogonalEdgeStyle;rounded=0;orthogonalLoop=1;jettySize=auto;html=1;exitX=0.5;exitY=1;exitDx=0;exitDy=0;entryX=0.5;entryY=0;entryDx=0;entryDy=0;" edge="1" parent="1" source="vv1z8L2qctmy59TaC0D9-4" target="vv1z8L2qctmy59TaC0D9-16">
          <mxGeometry relative="1" as="geometry" />
        </mxCell>
        <mxCell id="vv1z8L2qctmy59TaC0D9-4" value="Saved" style="rounded=1;whiteSpace=wrap;html=1;" vertex="1" parent="1">
          <mxGeometry x="115" y="160" width="120" height="60" as="geometry" />
        </mxCell>
        <mxCell id="vv1z8L2qctmy59TaC0D9-59" value="" style="edgeStyle=orthogonalEdgeStyle;rounded=0;orthogonalLoop=1;jettySize=auto;html=1;" edge="1" parent="1" source="vv1z8L2qctmy59TaC0D9-5" target="vv1z8L2qctmy59TaC0D9-18">
          <mxGeometry relative="1" as="geometry">
            <Array as="points">
              <mxPoint x="420" y="230" />
              <mxPoint x="380" y="230" />
            </Array>
          </mxGeometry>
        </mxCell>
        <mxCell id="vv1z8L2qctmy59TaC0D9-63" style="edgeStyle=orthogonalEdgeStyle;rounded=0;orthogonalLoop=1;jettySize=auto;html=1;exitX=0.5;exitY=1;exitDx=0;exitDy=0;entryX=0.5;entryY=0;entryDx=0;entryDy=0;" edge="1" parent="1" source="vv1z8L2qctmy59TaC0D9-5" target="vv1z8L2qctmy59TaC0D9-17">
          <mxGeometry relative="1" as="geometry">
            <Array as="points">
              <mxPoint x="420" y="230" />
              <mxPoint x="300" y="230" />
            </Array>
          </mxGeometry>
        </mxCell>
        <mxCell id="vv1z8L2qctmy59TaC0D9-64" style="edgeStyle=orthogonalEdgeStyle;rounded=0;orthogonalLoop=1;jettySize=auto;html=1;exitX=0.5;exitY=1;exitDx=0;exitDy=0;entryX=0.5;entryY=0;entryDx=0;entryDy=0;" edge="1" parent="1" source="vv1z8L2qctmy59TaC0D9-5" target="vv1z8L2qctmy59TaC0D9-19">
          <mxGeometry relative="1" as="geometry">
            <Array as="points">
              <mxPoint x="420" y="230" />
              <mxPoint x="460" y="230" />
            </Array>
          </mxGeometry>
        </mxCell>
        <mxCell id="vv1z8L2qctmy59TaC0D9-65" style="edgeStyle=orthogonalEdgeStyle;rounded=0;orthogonalLoop=1;jettySize=auto;html=1;exitX=0.5;exitY=1;exitDx=0;exitDy=0;entryX=0.5;entryY=0;entryDx=0;entryDy=0;" edge="1" parent="1" source="vv1z8L2qctmy59TaC0D9-5" target="vv1z8L2qctmy59TaC0D9-20">
          <mxGeometry relative="1" as="geometry">
            <Array as="points">
              <mxPoint x="420" y="230" />
              <mxPoint x="540" y="230" />
            </Array>
          </mxGeometry>
        </mxCell>
        <mxCell id="vv1z8L2qctmy59TaC0D9-5" value="Trips" style="rounded=1;whiteSpace=wrap;html=1;" vertex="1" parent="1">
          <mxGeometry x="360" y="160" width="120" height="60" as="geometry" />
        </mxCell>
        <mxCell id="vv1z8L2qctmy59TaC0D9-66" style="edgeStyle=orthogonalEdgeStyle;rounded=0;orthogonalLoop=1;jettySize=auto;html=1;entryX=0.5;entryY=0;entryDx=0;entryDy=0;" edge="1" parent="1" target="vv1z8L2qctmy59TaC0D9-21">
          <mxGeometry relative="1" as="geometry">
            <mxPoint x="695" y="230" as="sourcePoint" />
            <Array as="points">
              <mxPoint x="695" y="230" />
              <mxPoint x="655" y="230" />
            </Array>
          </mxGeometry>
        </mxCell>
        <mxCell id="vv1z8L2qctmy59TaC0D9-67" style="edgeStyle=orthogonalEdgeStyle;rounded=0;orthogonalLoop=1;jettySize=auto;html=1;exitX=0.5;exitY=1;exitDx=0;exitDy=0;" edge="1" parent="1" source="vv1z8L2qctmy59TaC0D9-6" target="vv1z8L2qctmy59TaC0D9-22">
          <mxGeometry relative="1" as="geometry">
            <mxPoint x="695" y="240" as="sourcePoint" />
            <Array as="points">
              <mxPoint x="695" y="230" />
              <mxPoint x="735" y="230" />
            </Array>
          </mxGeometry>
        </mxCell>
        <mxCell id="vv1z8L2qctmy59TaC0D9-6" value="Inbox" style="rounded=1;whiteSpace=wrap;html=1;" vertex="1" parent="1">
          <mxGeometry x="635" y="160" width="120" height="60" as="geometry" />
        </mxCell>
        <mxCell id="vv1z8L2qctmy59TaC0D9-68" style="edgeStyle=orthogonalEdgeStyle;rounded=0;orthogonalLoop=1;jettySize=auto;html=1;exitX=0.5;exitY=1;exitDx=0;exitDy=0;" edge="1" parent="1" source="vv1z8L2qctmy59TaC0D9-7" target="vv1z8L2qctmy59TaC0D9-25">
          <mxGeometry relative="1" as="geometry">
            <Array as="points">
              <mxPoint x="1210" y="400" />
              <mxPoint x="390" y="400" />
            </Array>
          </mxGeometry>
        </mxCell>
        <mxCell id="vv1z8L2qctmy59TaC0D9-69" style="edgeStyle=orthogonalEdgeStyle;rounded=0;orthogonalLoop=1;jettySize=auto;html=1;exitX=0.5;exitY=1;exitDx=0;exitDy=0;entryX=0.5;entryY=0;entryDx=0;entryDy=0;" edge="1" parent="1" source="vv1z8L2qctmy59TaC0D9-7" target="vv1z8L2qctmy59TaC0D9-23">
          <mxGeometry relative="1" as="geometry">
            <Array as="points">
              <mxPoint x="1210" y="400" />
              <mxPoint x="470" y="400" />
            </Array>
          </mxGeometry>
        </mxCell>
        <mxCell id="vv1z8L2qctmy59TaC0D9-70" style="edgeStyle=orthogonalEdgeStyle;rounded=0;orthogonalLoop=1;jettySize=auto;html=1;exitX=0.5;exitY=1;exitDx=0;exitDy=0;" edge="1" parent="1" source="vv1z8L2qctmy59TaC0D9-7" target="vv1z8L2qctmy59TaC0D9-31">
          <mxGeometry relative="1" as="geometry">
            <Array as="points">
              <mxPoint x="1210" y="400" />
              <mxPoint x="550" y="400" />
            </Array>
          </mxGeometry>
        </mxCell>
        <mxCell id="vv1z8L2qctmy59TaC0D9-71" style="edgeStyle=orthogonalEdgeStyle;rounded=0;orthogonalLoop=1;jettySize=auto;html=1;exitX=0.5;exitY=1;exitDx=0;exitDy=0;" edge="1" parent="1" source="vv1z8L2qctmy59TaC0D9-7" target="vv1z8L2qctmy59TaC0D9-33">
          <mxGeometry relative="1" as="geometry">
            <Array as="points">
              <mxPoint x="1210" y="400" />
              <mxPoint x="630" y="400" />
            </Array>
          </mxGeometry>
        </mxCell>
        <mxCell id="vv1z8L2qctmy59TaC0D9-72" style="edgeStyle=orthogonalEdgeStyle;rounded=0;orthogonalLoop=1;jettySize=auto;html=1;exitX=0.5;exitY=1;exitDx=0;exitDy=0;" edge="1" parent="1" source="vv1z8L2qctmy59TaC0D9-7" target="vv1z8L2qctmy59TaC0D9-34">
          <mxGeometry relative="1" as="geometry">
            <Array as="points">
              <mxPoint x="1210" y="400" />
              <mxPoint x="710" y="400" />
            </Array>
          </mxGeometry>
        </mxCell>
        <mxCell id="vv1z8L2qctmy59TaC0D9-73" style="edgeStyle=orthogonalEdgeStyle;rounded=0;orthogonalLoop=1;jettySize=auto;html=1;exitX=0.5;exitY=1;exitDx=0;exitDy=0;" edge="1" parent="1" source="vv1z8L2qctmy59TaC0D9-7" target="vv1z8L2qctmy59TaC0D9-35">
          <mxGeometry relative="1" as="geometry">
            <Array as="points">
              <mxPoint x="1210" y="400" />
              <mxPoint x="1430" y="400" />
            </Array>
          </mxGeometry>
        </mxCell>
        <mxCell id="vv1z8L2qctmy59TaC0D9-74" style="edgeStyle=orthogonalEdgeStyle;rounded=0;orthogonalLoop=1;jettySize=auto;html=1;exitX=0.5;exitY=1;exitDx=0;exitDy=0;" edge="1" parent="1" source="vv1z8L2qctmy59TaC0D9-7" target="vv1z8L2qctmy59TaC0D9-36">
          <mxGeometry relative="1" as="geometry">
            <Array as="points">
              <mxPoint x="1210" y="400" />
              <mxPoint x="1510" y="400" />
            </Array>
          </mxGeometry>
        </mxCell>
        <mxCell id="vv1z8L2qctmy59TaC0D9-75" style="edgeStyle=orthogonalEdgeStyle;rounded=0;orthogonalLoop=1;jettySize=auto;html=1;exitX=0.5;exitY=1;exitDx=0;exitDy=0;" edge="1" parent="1" source="vv1z8L2qctmy59TaC0D9-7" target="vv1z8L2qctmy59TaC0D9-37">
          <mxGeometry relative="1" as="geometry">
            <Array as="points">
              <mxPoint x="1210" y="400" />
              <mxPoint x="1590" y="400" />
            </Array>
          </mxGeometry>
        </mxCell>
        <mxCell id="vv1z8L2qctmy59TaC0D9-76" style="edgeStyle=orthogonalEdgeStyle;rounded=0;orthogonalLoop=1;jettySize=auto;html=1;exitX=0.5;exitY=1;exitDx=0;exitDy=0;" edge="1" parent="1" source="vv1z8L2qctmy59TaC0D9-7" target="vv1z8L2qctmy59TaC0D9-38">
          <mxGeometry relative="1" as="geometry">
            <Array as="points">
              <mxPoint x="1210" y="400" />
              <mxPoint x="1670" y="400" />
            </Array>
          </mxGeometry>
        </mxCell>
        <mxCell id="vv1z8L2qctmy59TaC0D9-77" style="edgeStyle=orthogonalEdgeStyle;rounded=0;orthogonalLoop=1;jettySize=auto;html=1;exitX=0.5;exitY=1;exitDx=0;exitDy=0;entryX=0.5;entryY=0;entryDx=0;entryDy=0;" edge="1" parent="1" source="vv1z8L2qctmy59TaC0D9-7" target="vv1z8L2qctmy59TaC0D9-32">
          <mxGeometry relative="1" as="geometry">
            <Array as="points">
              <mxPoint x="1210" y="400" />
              <mxPoint x="1750" y="400" />
            </Array>
          </mxGeometry>
        </mxCell>
        <mxCell id="vv1z8L2qctmy59TaC0D9-78" style="edgeStyle=orthogonalEdgeStyle;rounded=0;orthogonalLoop=1;jettySize=auto;html=1;exitX=0.5;exitY=1;exitDx=0;exitDy=0;" edge="1" parent="1" source="vv1z8L2qctmy59TaC0D9-7" target="vv1z8L2qctmy59TaC0D9-30">
          <mxGeometry relative="1" as="geometry">
            <Array as="points">
              <mxPoint x="1210" y="400" />
              <mxPoint x="1830" y="400" />
            </Array>
          </mxGeometry>
        </mxCell>
        <mxCell id="vv1z8L2qctmy59TaC0D9-79" style="edgeStyle=orthogonalEdgeStyle;rounded=0;orthogonalLoop=1;jettySize=auto;html=1;exitX=0.5;exitY=1;exitDx=0;exitDy=0;" edge="1" parent="1" source="vv1z8L2qctmy59TaC0D9-7" target="vv1z8L2qctmy59TaC0D9-29">
          <mxGeometry relative="1" as="geometry">
            <Array as="points">
              <mxPoint x="1210" y="400" />
              <mxPoint x="1910" y="400" />
            </Array>
          </mxGeometry>
        </mxCell>
        <mxCell id="vv1z8L2qctmy59TaC0D9-80" style="edgeStyle=orthogonalEdgeStyle;rounded=0;orthogonalLoop=1;jettySize=auto;html=1;exitX=0.5;exitY=1;exitDx=0;exitDy=0;" edge="1" parent="1" source="vv1z8L2qctmy59TaC0D9-7" target="vv1z8L2qctmy59TaC0D9-28">
          <mxGeometry relative="1" as="geometry">
            <Array as="points">
              <mxPoint x="1210" y="400" />
              <mxPoint x="1990" y="400" />
            </Array>
          </mxGeometry>
        </mxCell>
        <mxCell id="vv1z8L2qctmy59TaC0D9-81" style="edgeStyle=orthogonalEdgeStyle;rounded=0;orthogonalLoop=1;jettySize=auto;html=1;exitX=0.5;exitY=1;exitDx=0;exitDy=0;" edge="1" parent="1" source="vv1z8L2qctmy59TaC0D9-7" target="vv1z8L2qctmy59TaC0D9-24">
          <mxGeometry relative="1" as="geometry">
            <Array as="points">
              <mxPoint x="1210" y="400" />
              <mxPoint x="2070" y="400" />
            </Array>
          </mxGeometry>
        </mxCell>
        <mxCell id="vv1z8L2qctmy59TaC0D9-82" style="edgeStyle=orthogonalEdgeStyle;rounded=0;orthogonalLoop=1;jettySize=auto;html=1;exitX=0.5;exitY=1;exitDx=0;exitDy=0;" edge="1" parent="1" source="vv1z8L2qctmy59TaC0D9-7" target="vv1z8L2qctmy59TaC0D9-26">
          <mxGeometry relative="1" as="geometry">
            <Array as="points">
              <mxPoint x="1210" y="400" />
              <mxPoint x="2150" y="400" />
            </Array>
          </mxGeometry>
        </mxCell>
        <mxCell id="vv1z8L2qctmy59TaC0D9-83" style="edgeStyle=orthogonalEdgeStyle;rounded=0;orthogonalLoop=1;jettySize=auto;html=1;exitX=0.5;exitY=1;exitDx=0;exitDy=0;" edge="1" parent="1" source="vv1z8L2qctmy59TaC0D9-7" target="vv1z8L2qctmy59TaC0D9-27">
          <mxGeometry relative="1" as="geometry">
            <Array as="points">
              <mxPoint x="1210" y="400" />
              <mxPoint x="2230" y="400" />
            </Array>
          </mxGeometry>
        </mxCell>
        <mxCell id="vv1z8L2qctmy59TaC0D9-84" style="edgeStyle=orthogonalEdgeStyle;rounded=0;orthogonalLoop=1;jettySize=auto;html=1;exitX=0.5;exitY=1;exitDx=0;exitDy=0;" edge="1" parent="1" source="vv1z8L2qctmy59TaC0D9-7" target="vv1z8L2qctmy59TaC0D9-42">
          <mxGeometry relative="1" as="geometry">
            <Array as="points">
              <mxPoint x="1210" y="400" />
              <mxPoint x="2310" y="400" />
            </Array>
          </mxGeometry>
        </mxCell>
        <mxCell id="vv1z8L2qctmy59TaC0D9-85" style="edgeStyle=orthogonalEdgeStyle;rounded=0;orthogonalLoop=1;jettySize=auto;html=1;exitX=0.5;exitY=1;exitDx=0;exitDy=0;" edge="1" parent="1" source="vv1z8L2qctmy59TaC0D9-7" target="vv1z8L2qctmy59TaC0D9-39">
          <mxGeometry relative="1" as="geometry">
            <Array as="points">
              <mxPoint x="1210" y="400" />
              <mxPoint x="2390" y="400" />
            </Array>
          </mxGeometry>
        </mxCell>
        <mxCell id="vv1z8L2qctmy59TaC0D9-86" style="edgeStyle=orthogonalEdgeStyle;rounded=0;orthogonalLoop=1;jettySize=auto;html=1;exitX=0.5;exitY=1;exitDx=0;exitDy=0;entryX=0.5;entryY=0;entryDx=0;entryDy=0;" edge="1" parent="1" source="vv1z8L2qctmy59TaC0D9-7">
          <mxGeometry relative="1" as="geometry">
            <mxPoint x="2470" y="740" as="targetPoint" />
            <Array as="points">
              <mxPoint x="1210" y="400" />
              <mxPoint x="2470" y="400" />
            </Array>
          </mxGeometry>
        </mxCell>
        <mxCell id="vv1z8L2qctmy59TaC0D9-7" value="Profile" style="rounded=1;whiteSpace=wrap;html=1;" vertex="1" parent="1">
          <mxGeometry x="1150" y="160" width="120" height="60" as="geometry" />
        </mxCell>
        <mxCell id="vv1z8L2qctmy59TaC0D9-8" value="Search Engine" style="rounded=1;whiteSpace=wrap;html=1;" vertex="1" parent="1">
          <mxGeometry x="-155" y="260" width="70" height="60" as="geometry" />
        </mxCell>
        <mxCell id="vv1z8L2qctmy59TaC0D9-9" value="Suggested Stays" style="rounded=1;whiteSpace=wrap;html=1;" vertex="1" parent="1">
          <mxGeometry x="-75" y="260" width="70" height="60" as="geometry" />
        </mxCell>
        <mxCell id="vv1z8L2qctmy59TaC0D9-10" value="Resources for Guest &amp;amp; Hosts" style="rounded=1;whiteSpace=wrap;html=1;" vertex="1" parent="1">
          <mxGeometry x="5" y="260" width="70" height="60" as="geometry" />
        </mxCell>
        <mxCell id="vv1z8L2qctmy59TaC0D9-16" value="Your Saved Stays" style="rounded=1;whiteSpace=wrap;html=1;" vertex="1" parent="1">
          <mxGeometry x="140" y="260" width="70" height="60" as="geometry" />
        </mxCell>
        <mxCell id="vv1z8L2qctmy59TaC0D9-17" value="Upcoming Trips" style="rounded=1;whiteSpace=wrap;html=1;" vertex="1" parent="1">
          <mxGeometry x="265" y="260" width="70" height="60" as="geometry" />
        </mxCell>
        <mxCell id="vv1z8L2qctmy59TaC0D9-18" value="Past Trips" style="rounded=1;whiteSpace=wrap;html=1;" vertex="1" parent="1">
          <mxGeometry x="345" y="260" width="70" height="60" as="geometry" />
        </mxCell>
        <mxCell id="vv1z8L2qctmy59TaC0D9-19" value="Explore Airbnb" style="rounded=1;whiteSpace=wrap;html=1;" vertex="1" parent="1">
          <mxGeometry x="425" y="260" width="70" height="60" as="geometry" />
        </mxCell>
        <mxCell id="vv1z8L2qctmy59TaC0D9-20" value="Visit Help Center" style="rounded=1;whiteSpace=wrap;html=1;" vertex="1" parent="1">
          <mxGeometry x="505" y="260" width="70" height="60" as="geometry" />
        </mxCell>
        <mxCell id="vv1z8L2qctmy59TaC0D9-21" value="Messages" style="rounded=1;whiteSpace=wrap;html=1;" vertex="1" parent="1">
          <mxGeometry x="620" y="260" width="70" height="60" as="geometry" />
        </mxCell>
        <mxCell id="vv1z8L2qctmy59TaC0D9-22" value="Notifications" style="rounded=1;whiteSpace=wrap;html=1;" vertex="1" parent="1">
          <mxGeometry x="700" y="260" width="70" height="60" as="geometry" />
        </mxCell>
        <mxCell id="vv1z8L2qctmy59TaC0D9-23" value="Personal Information" style="rounded=1;whiteSpace=wrap;html=1;" vertex="1" parent="1">
          <mxGeometry x="435" y="440" width="70" height="60" as="geometry" />
        </mxCell>
        <mxCell id="vv1z8L2qctmy59TaC0D9-24" value="Safety Center" style="rounded=1;whiteSpace=wrap;html=1;" vertex="1" parent="1">
          <mxGeometry x="2035" y="740" width="70" height="60" as="geometry" />
        </mxCell>
        <mxCell id="vv1z8L2qctmy59TaC0D9-87" style="edgeStyle=orthogonalEdgeStyle;rounded=0;orthogonalLoop=1;jettySize=auto;html=1;exitX=0.5;exitY=1;exitDx=0;exitDy=0;" edge="1" parent="1" source="vv1z8L2qctmy59TaC0D9-25" target="vv1z8L2qctmy59TaC0D9-43">
          <mxGeometry relative="1" as="geometry" />
        </mxCell>
        <mxCell id="vv1z8L2qctmy59TaC0D9-25" value="Show Profile" style="rounded=1;whiteSpace=wrap;html=1;" vertex="1" parent="1">
          <mxGeometry x="355" y="440" width="70" height="60" as="geometry" />
        </mxCell>
        <mxCell id="vv1z8L2qctmy59TaC0D9-26" value="Contact Neighbor-hood Support" style="rounded=1;whiteSpace=wrap;html=1;" vertex="1" parent="1">
          <mxGeometry x="2115" y="740" width="70" height="60" as="geometry" />
        </mxCell>
        <mxCell id="vv1z8L2qctmy59TaC0D9-27" value="Get Help" style="rounded=1;whiteSpace=wrap;html=1;" vertex="1" parent="1">
          <mxGeometry x="2195" y="740" width="70" height="60" as="geometry" />
        </mxCell>
        <mxCell id="vv1z8L2qctmy59TaC0D9-28" value="How Airbnb Works" style="rounded=1;whiteSpace=wrap;html=1;" vertex="1" parent="1">
          <mxGeometry x="1955" y="740" width="70" height="60" as="geometry" />
        </mxCell>
        <mxCell id="vv1z8L2qctmy59TaC0D9-29" value="Siri Settings" style="rounded=1;whiteSpace=wrap;html=1;" vertex="1" parent="1">
          <mxGeometry x="1875" y="740" width="70" height="60" as="geometry" />
        </mxCell>
        <mxCell id="vv1z8L2qctmy59TaC0D9-30" value="Refer a Host" style="rounded=1;whiteSpace=wrap;html=1;" vertex="1" parent="1">
          <mxGeometry x="1795" y="740" width="70" height="60" as="geometry" />
        </mxCell>
        <mxCell id="vv1z8L2qctmy59TaC0D9-31" value="Notifications" style="rounded=1;whiteSpace=wrap;html=1;" vertex="1" parent="1">
          <mxGeometry x="515" y="440" width="70" height="60" as="geometry" />
        </mxCell>
        <mxCell id="vv1z8L2qctmy59TaC0D9-32" value="Invite Friends" style="rounded=1;whiteSpace=wrap;html=1;" vertex="1" parent="1">
          <mxGeometry x="1715" y="740" width="70" height="60" as="geometry" />
        </mxCell>
        <mxCell id="vv1z8L2qctmy59TaC0D9-33" value="Travel For Work" style="rounded=1;whiteSpace=wrap;html=1;" vertex="1" parent="1">
          <mxGeometry x="595" y="440" width="70" height="60" as="geometry" />
        </mxCell>
        <mxCell id="vv1z8L2qctmy59TaC0D9-88" style="edgeStyle=orthogonalEdgeStyle;rounded=0;orthogonalLoop=1;jettySize=auto;html=1;exitX=0.5;exitY=1;exitDx=0;exitDy=0;" edge="1" parent="1" source="vv1z8L2qctmy59TaC0D9-34" target="vv1z8L2qctmy59TaC0D9-44">
          <mxGeometry relative="1" as="geometry">
            <Array as="points">
              <mxPoint x="710" y="600" />
              <mxPoint x="510" y="600" />
            </Array>
          </mxGeometry>
        </mxCell>
        <mxCell id="vv1z8L2qctmy59TaC0D9-89" style="edgeStyle=orthogonalEdgeStyle;rounded=0;orthogonalLoop=1;jettySize=auto;html=1;exitX=0.5;exitY=1;exitDx=0;exitDy=0;" edge="1" parent="1" source="vv1z8L2qctmy59TaC0D9-34" target="vv1z8L2qctmy59TaC0D9-45">
          <mxGeometry relative="1" as="geometry">
            <Array as="points">
              <mxPoint x="710" y="600" />
              <mxPoint x="590" y="600" />
            </Array>
          </mxGeometry>
        </mxCell>
        <mxCell id="vv1z8L2qctmy59TaC0D9-90" style="edgeStyle=orthogonalEdgeStyle;rounded=0;orthogonalLoop=1;jettySize=auto;html=1;exitX=0.5;exitY=1;exitDx=0;exitDy=0;" edge="1" parent="1" source="vv1z8L2qctmy59TaC0D9-34" target="vv1z8L2qctmy59TaC0D9-46">
          <mxGeometry relative="1" as="geometry">
            <Array as="points">
              <mxPoint x="710" y="600" />
              <mxPoint x="670" y="600" />
            </Array>
          </mxGeometry>
        </mxCell>
        <mxCell id="vv1z8L2qctmy59TaC0D9-91" style="edgeStyle=orthogonalEdgeStyle;rounded=0;orthogonalLoop=1;jettySize=auto;html=1;exitX=0.5;exitY=1;exitDx=0;exitDy=0;" edge="1" parent="1" source="vv1z8L2qctmy59TaC0D9-34" target="vv1z8L2qctmy59TaC0D9-47">
          <mxGeometry relative="1" as="geometry">
            <Array as="points">
              <mxPoint x="710" y="600" />
              <mxPoint x="755" y="600" />
            </Array>
          </mxGeometry>
        </mxCell>
        <mxCell id="vv1z8L2qctmy59TaC0D9-92" style="edgeStyle=orthogonalEdgeStyle;rounded=0;orthogonalLoop=1;jettySize=auto;html=1;exitX=0.5;exitY=1;exitDx=0;exitDy=0;" edge="1" parent="1" source="vv1z8L2qctmy59TaC0D9-34" target="vv1z8L2qctmy59TaC0D9-48">
          <mxGeometry relative="1" as="geometry">
            <mxPoint x="810" y="550" as="sourcePoint" />
            <Array as="points">
              <mxPoint x="710" y="600" />
              <mxPoint x="1310" y="600" />
            </Array>
          </mxGeometry>
        </mxCell>
        <mxCell id="vv1z8L2qctmy59TaC0D9-34" value="Switch to Hosting" style="rounded=1;whiteSpace=wrap;html=1;" vertex="1" parent="1">
          <mxGeometry x="675" y="440" width="70" height="60" as="geometry" />
        </mxCell>
        <mxCell id="vv1z8L2qctmy59TaC0D9-35" value="Switch to Traveling" style="rounded=1;whiteSpace=wrap;html=1;" vertex="1" parent="1">
          <mxGeometry x="1395" y="740" width="70" height="60" as="geometry" />
        </mxCell>
        <mxCell id="vv1z8L2qctmy59TaC0D9-36" value="List Your Space" style="rounded=1;whiteSpace=wrap;html=1;" vertex="1" parent="1">
          <mxGeometry x="1475" y="740" width="70" height="60" as="geometry" />
        </mxCell>
        <mxCell id="vv1z8L2qctmy59TaC0D9-37" value="Host an Experience" style="rounded=1;whiteSpace=wrap;html=1;" vertex="1" parent="1">
          <mxGeometry x="1555" y="740" width="70" height="60" as="geometry" />
        </mxCell>
        <mxCell id="vv1z8L2qctmy59TaC0D9-38" value="Gift Cards" style="rounded=1;whiteSpace=wrap;html=1;" vertex="1" parent="1">
          <mxGeometry x="1635" y="740" width="70" height="60" as="geometry" />
        </mxCell>
        <mxCell id="vv1z8L2qctmy59TaC0D9-39" value="Terms of Service" style="rounded=1;whiteSpace=wrap;html=1;" vertex="1" parent="1">
          <mxGeometry x="2355" y="740" width="70" height="60" as="geometry" />
        </mxCell>
        <mxCell id="vv1z8L2qctmy59TaC0D9-42" value="Give Us Feedback" style="rounded=1;whiteSpace=wrap;html=1;" vertex="1" parent="1">
          <mxGeometry x="2275" y="740" width="70" height="60" as="geometry" />
        </mxCell>
        <mxCell id="vv1z8L2qctmy59TaC0D9-43" value="Profile" style="rounded=1;whiteSpace=wrap;html=1;" vertex="1" parent="1">
          <mxGeometry x="355" y="630" width="70" height="60" as="geometry" />
        </mxCell>
        <mxCell id="vv1z8L2qctmy59TaC0D9-44" value="Inbox" style="rounded=1;whiteSpace=wrap;html=1;" vertex="1" parent="1">
          <mxGeometry x="475" y="640" width="70" height="60" as="geometry" />
        </mxCell>
        <mxCell id="vv1z8L2qctmy59TaC0D9-45" value="Calendar" style="rounded=1;whiteSpace=wrap;html=1;" vertex="1" parent="1">
          <mxGeometry x="555" y="640" width="70" height="60" as="geometry" />
        </mxCell>
        <mxCell id="vv1z8L2qctmy59TaC0D9-46" value="Listings" style="rounded=1;whiteSpace=wrap;html=1;" vertex="1" parent="1">
          <mxGeometry x="635" y="640" width="70" height="60" as="geometry" />
        </mxCell>
        <mxCell id="vv1z8L2qctmy59TaC0D9-93" style="edgeStyle=orthogonalEdgeStyle;rounded=0;orthogonalLoop=1;jettySize=auto;html=1;exitX=0.5;exitY=1;exitDx=0;exitDy=0;" edge="1" parent="1" source="vv1z8L2qctmy59TaC0D9-47" target="vv1z8L2qctmy59TaC0D9-51">
          <mxGeometry relative="1" as="geometry" />
        </mxCell>
        <mxCell id="vv1z8L2qctmy59TaC0D9-94" style="edgeStyle=orthogonalEdgeStyle;rounded=0;orthogonalLoop=1;jettySize=auto;html=1;exitX=0.5;exitY=1;exitDx=0;exitDy=0;" edge="1" parent="1" source="vv1z8L2qctmy59TaC0D9-47" target="vv1z8L2qctmy59TaC0D9-49">
          <mxGeometry relative="1" as="geometry" />
        </mxCell>
        <mxCell id="vv1z8L2qctmy59TaC0D9-95" style="edgeStyle=orthogonalEdgeStyle;rounded=0;orthogonalLoop=1;jettySize=auto;html=1;exitX=0.5;exitY=1;exitDx=0;exitDy=0;" edge="1" parent="1" source="vv1z8L2qctmy59TaC0D9-47" target="vv1z8L2qctmy59TaC0D9-50">
          <mxGeometry relative="1" as="geometry" />
        </mxCell>
        <mxCell id="vv1z8L2qctmy59TaC0D9-47" value="Performance" style="rounded=1;whiteSpace=wrap;html=1;" vertex="1" parent="1">
          <mxGeometry x="715" y="640" width="70" height="60" as="geometry" />
        </mxCell>
        <mxCell id="vv1z8L2qctmy59TaC0D9-107" style="edgeStyle=orthogonalEdgeStyle;rounded=0;orthogonalLoop=1;jettySize=auto;html=1;exitX=0.5;exitY=1;exitDx=0;exitDy=0;entryX=0.5;entryY=0;entryDx=0;entryDy=0;" edge="1" parent="1" source="vv1z8L2qctmy59TaC0D9-48" target="vv1z8L2qctmy59TaC0D9-101">
          <mxGeometry relative="1" as="geometry">
            <Array as="points">
              <mxPoint x="1310" y="720" />
              <mxPoint x="950" y="720" />
            </Array>
          </mxGeometry>
        </mxCell>
        <mxCell id="vv1z8L2qctmy59TaC0D9-108" style="edgeStyle=orthogonalEdgeStyle;rounded=0;orthogonalLoop=1;jettySize=auto;html=1;exitX=0.5;exitY=1;exitDx=0;exitDy=0;entryX=0.5;entryY=0;entryDx=0;entryDy=0;" edge="1" parent="1" source="vv1z8L2qctmy59TaC0D9-48" target="vv1z8L2qctmy59TaC0D9-102">
          <mxGeometry relative="1" as="geometry">
            <Array as="points">
              <mxPoint x="1310" y="720" />
              <mxPoint x="1030" y="720" />
            </Array>
          </mxGeometry>
        </mxCell>
        <mxCell id="vv1z8L2qctmy59TaC0D9-109" style="edgeStyle=orthogonalEdgeStyle;rounded=0;orthogonalLoop=1;jettySize=auto;html=1;exitX=0.5;exitY=1;exitDx=0;exitDy=0;entryX=0.5;entryY=0;entryDx=0;entryDy=0;" edge="1" parent="1" source="vv1z8L2qctmy59TaC0D9-48" target="vv1z8L2qctmy59TaC0D9-103">
          <mxGeometry relative="1" as="geometry">
            <Array as="points">
              <mxPoint x="1310" y="720" />
              <mxPoint x="1110" y="720" />
            </Array>
          </mxGeometry>
        </mxCell>
        <mxCell id="vv1z8L2qctmy59TaC0D9-110" style="edgeStyle=orthogonalEdgeStyle;rounded=0;orthogonalLoop=1;jettySize=auto;html=1;exitX=0.5;exitY=1;exitDx=0;exitDy=0;entryX=0.5;entryY=0;entryDx=0;entryDy=0;" edge="1" parent="1" source="vv1z8L2qctmy59TaC0D9-48" target="vv1z8L2qctmy59TaC0D9-104">
          <mxGeometry relative="1" as="geometry">
            <Array as="points">
              <mxPoint x="1310" y="720" />
              <mxPoint x="1190" y="720" />
            </Array>
          </mxGeometry>
        </mxCell>
        <mxCell id="vv1z8L2qctmy59TaC0D9-111" style="edgeStyle=orthogonalEdgeStyle;rounded=0;orthogonalLoop=1;jettySize=auto;html=1;exitX=0.5;exitY=1;exitDx=0;exitDy=0;entryX=0.5;entryY=0;entryDx=0;entryDy=0;" edge="1" parent="1" source="vv1z8L2qctmy59TaC0D9-48" target="vv1z8L2qctmy59TaC0D9-105">
          <mxGeometry relative="1" as="geometry">
            <Array as="points">
              <mxPoint x="1310" y="720" />
              <mxPoint x="1270" y="720" />
            </Array>
          </mxGeometry>
        </mxCell>
        <mxCell id="vv1z8L2qctmy59TaC0D9-112" style="edgeStyle=orthogonalEdgeStyle;rounded=0;orthogonalLoop=1;jettySize=auto;html=1;exitX=0.5;exitY=1;exitDx=0;exitDy=0;entryX=0.5;entryY=0;entryDx=0;entryDy=0;" edge="1" parent="1" source="vv1z8L2qctmy59TaC0D9-48" target="vv1z8L2qctmy59TaC0D9-106">
          <mxGeometry relative="1" as="geometry">
            <Array as="points">
              <mxPoint x="1310" y="720" />
              <mxPoint x="1350" y="720" />
            </Array>
          </mxGeometry>
        </mxCell>
        <mxCell id="vv1z8L2qctmy59TaC0D9-113" style="edgeStyle=orthogonalEdgeStyle;rounded=0;orthogonalLoop=1;jettySize=auto;html=1;exitX=0.5;exitY=1;exitDx=0;exitDy=0;entryX=0.5;entryY=0;entryDx=0;entryDy=0;" edge="1" parent="1" source="vv1z8L2qctmy59TaC0D9-48" target="vv1z8L2qctmy59TaC0D9-35">
          <mxGeometry relative="1" as="geometry">
            <Array as="points">
              <mxPoint x="1310" y="720" />
              <mxPoint x="1430" y="720" />
            </Array>
          </mxGeometry>
        </mxCell>
        <mxCell id="vv1z8L2qctmy59TaC0D9-114" style="edgeStyle=orthogonalEdgeStyle;rounded=0;orthogonalLoop=1;jettySize=auto;html=1;exitX=0.5;exitY=1;exitDx=0;exitDy=0;" edge="1" parent="1" source="vv1z8L2qctmy59TaC0D9-48">
          <mxGeometry relative="1" as="geometry">
            <mxPoint x="2453" y="800" as="targetPoint" />
            <Array as="points">
              <mxPoint x="1310" y="820" />
              <mxPoint x="2453" y="820" />
            </Array>
          </mxGeometry>
        </mxCell>
        <mxCell id="vv1z8L2qctmy59TaC0D9-115" style="edgeStyle=orthogonalEdgeStyle;rounded=0;orthogonalLoop=1;jettySize=auto;html=1;exitX=0.5;exitY=1;exitDx=0;exitDy=0;" edge="1" parent="1" source="vv1z8L2qctmy59TaC0D9-48">
          <mxGeometry relative="1" as="geometry">
            <mxPoint x="2373" y="800" as="targetPoint" />
            <Array as="points">
              <mxPoint x="1310" y="820" />
              <mxPoint x="2373" y="820" />
            </Array>
          </mxGeometry>
        </mxCell>
        <mxCell id="vv1z8L2qctmy59TaC0D9-116" style="edgeStyle=orthogonalEdgeStyle;rounded=0;orthogonalLoop=1;jettySize=auto;html=1;exitX=0.5;exitY=1;exitDx=0;exitDy=0;" edge="1" parent="1" source="vv1z8L2qctmy59TaC0D9-48">
          <mxGeometry relative="1" as="geometry">
            <mxPoint x="2293" y="800" as="targetPoint" />
            <Array as="points">
              <mxPoint x="1310" y="820" />
              <mxPoint x="2293" y="820" />
            </Array>
          </mxGeometry>
        </mxCell>
        <mxCell id="vv1z8L2qctmy59TaC0D9-117" style="edgeStyle=orthogonalEdgeStyle;rounded=0;orthogonalLoop=1;jettySize=auto;html=1;exitX=0.5;exitY=1;exitDx=0;exitDy=0;entryX=0.5;entryY=1;entryDx=0;entryDy=0;" edge="1" parent="1" source="vv1z8L2qctmy59TaC0D9-48" target="vv1z8L2qctmy59TaC0D9-27">
          <mxGeometry relative="1" as="geometry" />
        </mxCell>
        <mxCell id="vv1z8L2qctmy59TaC0D9-118" style="edgeStyle=orthogonalEdgeStyle;rounded=0;orthogonalLoop=1;jettySize=auto;html=1;exitX=0.5;exitY=1;exitDx=0;exitDy=0;entryX=0.5;entryY=1;entryDx=0;entryDy=0;" edge="1" parent="1" source="vv1z8L2qctmy59TaC0D9-48" target="vv1z8L2qctmy59TaC0D9-26">
          <mxGeometry relative="1" as="geometry" />
        </mxCell>
        <mxCell id="vv1z8L2qctmy59TaC0D9-119" style="edgeStyle=orthogonalEdgeStyle;rounded=0;orthogonalLoop=1;jettySize=auto;html=1;exitX=0.5;exitY=1;exitDx=0;exitDy=0;entryX=0.5;entryY=1;entryDx=0;entryDy=0;" edge="1" parent="1" source="vv1z8L2qctmy59TaC0D9-48" target="vv1z8L2qctmy59TaC0D9-24">
          <mxGeometry relative="1" as="geometry" />
        </mxCell>
        <mxCell id="vv1z8L2qctmy59TaC0D9-120" style="edgeStyle=orthogonalEdgeStyle;rounded=0;orthogonalLoop=1;jettySize=auto;html=1;exitX=0.5;exitY=1;exitDx=0;exitDy=0;entryX=0.5;entryY=1;entryDx=0;entryDy=0;" edge="1" parent="1" source="vv1z8L2qctmy59TaC0D9-48" target="vv1z8L2qctmy59TaC0D9-28">
          <mxGeometry relative="1" as="geometry" />
        </mxCell>
        <mxCell id="vv1z8L2qctmy59TaC0D9-121" style="edgeStyle=orthogonalEdgeStyle;rounded=0;orthogonalLoop=1;jettySize=auto;html=1;exitX=0.5;exitY=1;exitDx=0;exitDy=0;entryX=0.5;entryY=1;entryDx=0;entryDy=0;" edge="1" parent="1" source="vv1z8L2qctmy59TaC0D9-48" target="vv1z8L2qctmy59TaC0D9-29">
          <mxGeometry relative="1" as="geometry" />
        </mxCell>
        <mxCell id="vv1z8L2qctmy59TaC0D9-123" style="edgeStyle=orthogonalEdgeStyle;rounded=0;orthogonalLoop=1;jettySize=auto;html=1;exitX=0.5;exitY=1;exitDx=0;exitDy=0;entryX=0.5;entryY=1;entryDx=0;entryDy=0;" edge="1" parent="1" source="vv1z8L2qctmy59TaC0D9-48" target="vv1z8L2qctmy59TaC0D9-30">
          <mxGeometry relative="1" as="geometry" />
        </mxCell>
        <mxCell id="vv1z8L2qctmy59TaC0D9-124" style="edgeStyle=orthogonalEdgeStyle;rounded=0;orthogonalLoop=1;jettySize=auto;html=1;exitX=0.5;exitY=1;exitDx=0;exitDy=0;entryX=0.5;entryY=1;entryDx=0;entryDy=0;" edge="1" parent="1" source="vv1z8L2qctmy59TaC0D9-48" target="vv1z8L2qctmy59TaC0D9-32">
          <mxGeometry relative="1" as="geometry" />
        </mxCell>
        <mxCell id="vv1z8L2qctmy59TaC0D9-125" style="edgeStyle=orthogonalEdgeStyle;rounded=0;orthogonalLoop=1;jettySize=auto;html=1;exitX=0.5;exitY=1;exitDx=0;exitDy=0;entryX=0.5;entryY=1;entryDx=0;entryDy=0;" edge="1" parent="1" source="vv1z8L2qctmy59TaC0D9-48" target="vv1z8L2qctmy59TaC0D9-38">
          <mxGeometry relative="1" as="geometry" />
        </mxCell>
        <mxCell id="vv1z8L2qctmy59TaC0D9-126" style="edgeStyle=orthogonalEdgeStyle;rounded=0;orthogonalLoop=1;jettySize=auto;html=1;exitX=0.5;exitY=1;exitDx=0;exitDy=0;entryX=0.5;entryY=1;entryDx=0;entryDy=0;" edge="1" parent="1" source="vv1z8L2qctmy59TaC0D9-48" target="vv1z8L2qctmy59TaC0D9-37">
          <mxGeometry relative="1" as="geometry" />
        </mxCell>
        <mxCell id="vv1z8L2qctmy59TaC0D9-127" style="edgeStyle=orthogonalEdgeStyle;rounded=0;orthogonalLoop=1;jettySize=auto;html=1;exitX=0.5;exitY=1;exitDx=0;exitDy=0;entryX=0.5;entryY=1;entryDx=0;entryDy=0;" edge="1" parent="1" source="vv1z8L2qctmy59TaC0D9-48" target="vv1z8L2qctmy59TaC0D9-36">
          <mxGeometry relative="1" as="geometry" />
        </mxCell>
        <mxCell id="vv1z8L2qctmy59TaC0D9-128" style="edgeStyle=orthogonalEdgeStyle;rounded=0;orthogonalLoop=1;jettySize=auto;html=1;exitX=0.5;exitY=1;exitDx=0;exitDy=0;entryX=0.5;entryY=1;entryDx=0;entryDy=0;" edge="1" parent="1" source="vv1z8L2qctmy59TaC0D9-48" target="vv1z8L2qctmy59TaC0D9-35">
          <mxGeometry relative="1" as="geometry" />
        </mxCell>
        <mxCell id="vv1z8L2qctmy59TaC0D9-129" style="edgeStyle=orthogonalEdgeStyle;rounded=0;orthogonalLoop=1;jettySize=auto;html=1;exitX=0.5;exitY=1;exitDx=0;exitDy=0;entryX=0.5;entryY=1;entryDx=0;entryDy=0;" edge="1" parent="1" source="vv1z8L2qctmy59TaC0D9-48" target="vv1z8L2qctmy59TaC0D9-106">
          <mxGeometry relative="1" as="geometry">
            <mxPoint x="1310" y="810" as="targetPoint" />
            <Array as="points">
              <mxPoint x="1310" y="820" />
              <mxPoint x="1350" y="820" />
            </Array>
          </mxGeometry>
        </mxCell>
        <mxCell id="vv1z8L2qctmy59TaC0D9-48" value="Profile" style="rounded=1;whiteSpace=wrap;html=1;" vertex="1" parent="1">
          <mxGeometry x="1275" y="640" width="70" height="60" as="geometry" />
        </mxCell>
        <mxCell id="vv1z8L2qctmy59TaC0D9-49" value="Stats" style="rounded=1;whiteSpace=wrap;html=1;" vertex="1" parent="1">
          <mxGeometry x="715" y="740" width="70" height="60" as="geometry" />
        </mxCell>
        <mxCell id="vv1z8L2qctmy59TaC0D9-97" style="edgeStyle=orthogonalEdgeStyle;rounded=0;orthogonalLoop=1;jettySize=auto;html=1;exitX=0.5;exitY=1;exitDx=0;exitDy=0;" edge="1" parent="1" source="vv1z8L2qctmy59TaC0D9-50" target="vv1z8L2qctmy59TaC0D9-55">
          <mxGeometry relative="1" as="geometry" />
        </mxCell>
        <mxCell id="vv1z8L2qctmy59TaC0D9-98" style="edgeStyle=orthogonalEdgeStyle;rounded=0;orthogonalLoop=1;jettySize=auto;html=1;exitX=0.5;exitY=1;exitDx=0;exitDy=0;" edge="1" parent="1" source="vv1z8L2qctmy59TaC0D9-50" target="vv1z8L2qctmy59TaC0D9-53">
          <mxGeometry relative="1" as="geometry" />
        </mxCell>
        <mxCell id="vv1z8L2qctmy59TaC0D9-99" style="edgeStyle=orthogonalEdgeStyle;rounded=0;orthogonalLoop=1;jettySize=auto;html=1;exitX=0.5;exitY=1;exitDx=0;exitDy=0;entryX=0.5;entryY=0;entryDx=0;entryDy=0;" edge="1" parent="1" source="vv1z8L2qctmy59TaC0D9-50" target="vv1z8L2qctmy59TaC0D9-54">
          <mxGeometry relative="1" as="geometry">
            <mxPoint x="950.0000000000005" y="840" as="targetPoint" />
            <Array as="points">
              <mxPoint x="830" y="820" />
              <mxPoint x="910" y="820" />
            </Array>
          </mxGeometry>
        </mxCell>
        <mxCell id="vv1z8L2qctmy59TaC0D9-50" value="Cleaning" style="rounded=1;whiteSpace=wrap;html=1;" vertex="1" parent="1">
          <mxGeometry x="795" y="740" width="70" height="60" as="geometry" />
        </mxCell>
        <mxCell id="vv1z8L2qctmy59TaC0D9-96" style="edgeStyle=orthogonalEdgeStyle;rounded=0;orthogonalLoop=1;jettySize=auto;html=1;exitX=0.5;exitY=1;exitDx=0;exitDy=0;" edge="1" parent="1" source="vv1z8L2qctmy59TaC0D9-51" target="vv1z8L2qctmy59TaC0D9-52">
          <mxGeometry relative="1" as="geometry" />
        </mxCell>
        <mxCell id="vv1z8L2qctmy59TaC0D9-51" value="Opportunities" style="rounded=1;whiteSpace=wrap;html=1;" vertex="1" parent="1">
          <mxGeometry x="635" y="740" width="70" height="60" as="geometry" />
        </mxCell>
        <mxCell id="vv1z8L2qctmy59TaC0D9-52" value="Resources" style="rounded=1;whiteSpace=wrap;html=1;" vertex="1" parent="1">
          <mxGeometry x="635" y="840" width="70" height="60" as="geometry" />
        </mxCell>
        <mxCell id="vv1z8L2qctmy59TaC0D9-53" value="Supplies &amp;amp; Services" style="rounded=1;whiteSpace=wrap;html=1;" vertex="1" parent="1">
          <mxGeometry x="795" y="840" width="70" height="60" as="geometry" />
        </mxCell>
        <mxCell id="vv1z8L2qctmy59TaC0D9-54" value="Resources" style="rounded=1;whiteSpace=wrap;html=1;" vertex="1" parent="1">
          <mxGeometry x="875" y="840" width="70" height="60" as="geometry" />
        </mxCell>
        <mxCell id="vv1z8L2qctmy59TaC0D9-55" value="Cleaning Checklists" style="rounded=1;whiteSpace=wrap;html=1;" vertex="1" parent="1">
          <mxGeometry x="715" y="840" width="70" height="60" as="geometry" />
        </mxCell>
        <mxCell id="vv1z8L2qctmy59TaC0D9-101" value="Show Profile" style="rounded=1;whiteSpace=wrap;html=1;" vertex="1" parent="1">
          <mxGeometry x="915" y="740" width="70" height="60" as="geometry" />
        </mxCell>
        <mxCell id="vv1z8L2qctmy59TaC0D9-102" value="Notifications" style="rounded=1;whiteSpace=wrap;html=1;" vertex="1" parent="1">
          <mxGeometry x="995" y="740" width="70" height="60" as="geometry" />
        </mxCell>
        <mxCell id="vv1z8L2qctmy59TaC0D9-103" value="Reservations" style="rounded=1;whiteSpace=wrap;html=1;" vertex="1" parent="1">
          <mxGeometry x="1075" y="740" width="70" height="60" as="geometry" />
        </mxCell>
        <mxCell id="vv1z8L2qctmy59TaC0D9-104" value="Personal Information" style="rounded=1;whiteSpace=wrap;html=1;" vertex="1" parent="1">
          <mxGeometry x="1155" y="740" width="70" height="60" as="geometry" />
        </mxCell>
        <mxCell id="vv1z8L2qctmy59TaC0D9-105" value="Payments &amp;amp; Payouts" style="rounded=1;whiteSpace=wrap;html=1;" vertex="1" parent="1">
          <mxGeometry x="1235" y="740" width="70" height="60" as="geometry" />
        </mxCell>
        <mxCell id="vv1z8L2qctmy59TaC0D9-106" value="Travel for Work" style="rounded=1;whiteSpace=wrap;html=1;" vertex="1" parent="1">
          <mxGeometry x="1315" y="740" width="70" height="60" as="geometry" />
        </mxCell>
        <mxCell id="vv1z8L2qctmy59TaC0D9-130" value="Log Out" style="rounded=0;whiteSpace=wrap;html=1;" vertex="1" parent="1">
          <mxGeometry x="2435" y="740" width="70" height="60" as="geometry" />
        </mxCell>
      </root>
    </mxGraphModel>
  </diagram>
</mxfile>
